<svg width="4179" height="2070" xmlns="http://www.w3.org/2000/svg" xmlns:xlink="http://www.w3.org/1999/xlink" xml:space="preserve" overflow="hidden"><g transform="translate(-112 -25)"><rect x="117.5" y="706.5" width="1089" height="1386" stroke="#000000" stroke-width="4.54724" stroke-miterlimit="8" fill="#000000" fill-opacity="0.0509804"/><text font-family="Aptos,Aptos_MSFontService,sans-serif" font-weight="400" font-size="92" transform="matrix(1 0 0 1 167.899 807)">Specimen / sample </text><text font-family="Aptos,Aptos_MSFontService,sans-serif" font-weight="400" font-size="92" transform="matrix(1 0 0 1 167.899 917)">collection &amp; preservation</text><rect x="3162.5" y="568.5" width="1126" height="1524" stroke="#000000" stroke-width="4.54724" stroke-miterlimit="8" fill="#000000" fill-opacity="0.0509804"/><text font-family="Aptos,Aptos_MSFontService,sans-serif" font-weight="400" font-size="92" transform="matrix(1 0 0 1 3255.19 670)">Computational analysis </text><text font-family="Aptos,Aptos_MSFontService,sans-serif" font-weight="400" font-size="92" transform="matrix(1 0 0 1 3255.19 780)">(genome assembly)</text><rect x="1666.5" y="568.5" width="1126" height="1524" stroke="#000000" stroke-width="4.54724" stroke-miterlimit="8" fill="#000000" fill-opacity="0.0509804"/><text font-family="Aptos,Aptos_MSFontService,sans-serif" font-weight="400" font-size="92" transform="matrix(1 0 0 1 1825.51 670)">Wet lab processes &amp; </text><text font-family="Aptos,Aptos_MSFontService,sans-serif" font-weight="400" font-size="92" transform="matrix(1 0 0 1 1825.51 780)">sequencing</text><path d="M1271.5 1351.04 1560.38 1351.04 1560.38 1373.96 1271.5 1373.96ZM1548.93 1328.13 1617.68 1362.5 1548.93 1396.88Z"/><path d="M2792.5 1357.04 3081.38 1357.04 3081.38 1379.96 2792.5 1379.96ZM3069.93 1334.13 3138.68 1368.5 3069.93 1402.88Z"/><rect x="200.5" y="1039.5" width="462" height="249" stroke="#000000" stroke-width="6.875" stroke-miterlimit="8" fill="none"/><text font-family="Aptos,Aptos_MSFontService,sans-serif" font-weight="400" font-size="83" transform="matrix(1 0 0 1 292.187 1140)">Original </text><text font-family="Aptos,Aptos_MSFontService,sans-serif" font-weight="400" font-size="83" transform="matrix(1 0 0 1 294.777 1239)">Sample</text><rect x="200.5" y="1587.5" width="462" height="302" stroke="#000000" stroke-width="6.875" stroke-miterlimit="8" fill="none"/><text font-family="Aptos,Aptos_MSFontService,sans-serif" font-weight="400" font-size="83" transform="matrix(1 0 0 1 241.61 1715)">Biobanked</text><text font-family="Aptos,Aptos_MSFontService,sans-serif" font-weight="400" font-size="83" transform="matrix(1 0 0 1 294.777 1814)">Sample</text><rect x="743.5" y="1192.5" width="421" height="91.0001" stroke="#000000" stroke-width="6.875" stroke-miterlimit="8" fill="none"/><text font-family="Aptos,Aptos_MSFontService,sans-serif" font-weight="400" font-size="83" transform="matrix(1 0 0 1 798.29 1264)">Location</text><rect x="743.5" y="1038.5" width="421" height="91.0001" stroke="#000000" stroke-width="6.875" stroke-miterlimit="8" fill="none"/><text font-family="Aptos,Aptos_MSFontService,sans-serif" font-weight="400" font-size="83" transform="matrix(1 0 0 1 787.68 1110)">Collector</text><rect x="720.5" y="1618.5" width="444" height="91.0001" stroke="#000000" stroke-width="6.875" stroke-miterlimit="8" fill="none"/><text font-family="Aptos,Aptos_MSFontService,sans-serif" font-weight="400" font-size="83" transform="matrix(1 0 0 1 757.089 1690)">Custodian</text><rect x="166.5" y="1357.5" width="521" height="177" stroke="#000000" stroke-width="6.875" stroke-miterlimit="8" fill="none"/><text font-family="Aptos,Aptos_MSFontService,sans-serif" font-weight="400" font-size="83" transform="matrix(1 0 0 1 229.015 1423)">Biobanking </text><text font-family="Aptos,Aptos_MSFontService,sans-serif" font-weight="400" font-size="83" transform="matrix(1 0 0 1 287.75 1522)">method</text><rect x="702.5" y="1863.5" width="462" height="162" stroke="#000000" stroke-width="6.875" stroke-miterlimit="8" fill="none"/><text font-family="Aptos,Aptos_MSFontService,sans-serif" font-weight="700" font-size="83" transform="matrix(1 0 0 1 738.375 1970)">Accession</text><path d="M2.41192-2.44929 66.75 60.9072 61.9261 65.8058-2.41192 2.44929ZM70.72 50.3435 80.6667 79.436 51.4246 69.9378Z" fill="#156082" transform="matrix(1 0 0 -1 653.5 1163.94)"/><path d="M664.961 1161.1 729.629 1227.42 724.707 1232.22 660.039 1165.9ZM733.813 1216.94 743.167 1246.23 714.124 1236.14Z" fill="#156082"/><path d="M3.43133-0.205823 6.22099 46.3013-0.641676 46.7129-3.43133 0.205823ZM16.2406 41.1087 4.16181 69.3826-11.2101 42.7553Z" fill="#156082" transform="matrix(-1 0 0 1 431.662 1288.5)"/><path d="M430.927 1534.23 433.305 1564.69 426.451 1565.22 424.073 1534.77ZM443.229 1559.31 431.662 1587.8 415.813 1561.46Z" fill="#156082"/><path d="M2.80128-1.99229 48.0579 61.6412 42.4553 65.6258-2.80128 1.99229ZM53.8053 51.9293 58.5386 82.3087 31.3951 67.8676Z" fill="#156082" transform="matrix(1 0 0 -1 662.5 1746.81)"/><rect x="2209.5" y="1863.5" width="462" height="162" stroke="#000000" stroke-width="6.875" stroke-miterlimit="8" fill="none"/><text font-family="Aptos,Aptos_MSFontService,sans-serif" font-weight="700" font-size="83" transform="matrix(1 0 0 1 2245.65 1970)">Accession</text><rect x="3679.5" y="1872.5" width="462" height="162" stroke="#000000" stroke-width="6.875" stroke-miterlimit="8" fill="none"/><text font-family="Aptos,Aptos_MSFontService,sans-serif" font-weight="700" font-size="83" transform="matrix(1 0 0 1 3715.43 1979)">Accession</text><rect x="1716.5" y="1746.5" width="724" height="100" stroke="#000000" stroke-width="6.875" stroke-miterlimit="8" fill="none"/><text font-family="Aptos,Aptos_MSFontService,sans-serif" font-weight="400" font-size="83" transform="matrix(1 0 0 1 1787.42 1823)">Sequenced data</text><rect x="1707.5" y="1086.5" width="687" height="144" stroke="#000000" stroke-width="6.875" stroke-miterlimit="8" fill="none"/><text font-family="Aptos,Aptos_MSFontService,sans-serif" font-weight="400" font-size="83" transform="matrix(1 0 0 1 1765.09 1185)">DNA processing</text><rect x="1734.5" y="855.5" width="462" height="144" stroke="#000000" stroke-width="6.875" stroke-miterlimit="8" fill="none"/><text font-family="Aptos,Aptos_MSFontService,sans-serif" font-weight="400" font-size="83" transform="matrix(1 0 0 1 1828.72 953)">Sample</text><path d="M1967.96 997.095 2037.55 1068.14 2032.64 1072.95 1963.04 1001.91ZM2041.71 1057.65 2051.13 1086.91 2022.07 1076.89Z" fill="#156082"/><rect x="1758.5" y="1534.5" width="519" height="125" stroke="#000000" stroke-width="6.875" stroke-miterlimit="8" fill="none"/><text font-family="Aptos,Aptos_MSFontService,sans-serif" font-weight="400" font-size="83" transform="matrix(1 0 0 1 1807.76 1623)">Sequencing</text><rect x="1720.5" y="1297.5" width="627" height="143" stroke="#000000" stroke-width="6.875" stroke-miterlimit="8" fill="none"/><text font-family="Aptos,Aptos_MSFontService,sans-serif" font-weight="400" font-size="83" transform="matrix(1 0 0 1 1755.4 1395)">Processed DNA</text><path d="M3.38025-0.624772 16.1882 68.6711 9.42774 69.9207-3.38025 0.624772ZM25.4959 62.2898 16.9731 91.8309-1.54603 67.288Z" fill="#156082" transform="matrix(-1 0 0 1 2050.47 1205.5)"/><path d="M3.38832-0.579415 15.5235 70.3852 8.74691 71.5441-3.38832 0.579415ZM24.9159 64.1292 15.998 93.5534-2.19059 68.7645Z" fill="#156082" transform="matrix(-1 0 0 1 2033.5 1440.5)"/><path d="M2020.31 1657.52 2067.91 1725.22 2062.28 1729.18 2014.69 1661.48ZM2073.71 1715.54 2078.27 1745.95 2051.21 1731.36Z" fill="#156082"/><rect x="2487.5" y="877.5" width="264" height="124" stroke="#000000" stroke-width="6.875" stroke-miterlimit="8" fill="none"/><text font-family="Aptos,Aptos_MSFontService,sans-serif" font-weight="400" font-size="83" transform="matrix(1 0 0 1 2541.91 965)">SOP</text><path d="M3.16746-1.33551 86.7623 196.929 80.4274 199.6-3.16746 1.33551ZM94.484 188.699 92.4982 219.381 69.1443 199.383Z" fill="#156082" transform="matrix(1 0 0 -1 2394.5 1158.88)"/><rect x="2462.5" y="1525.5" width="264" height="124" stroke="#000000" stroke-width="6.875" stroke-miterlimit="8" fill="none"/><text font-family="Aptos,Aptos_MSFontService,sans-serif" font-weight="400" font-size="83" transform="matrix(1 0 0 1 2516.7 1614)">SOP</text><path d="M0.173247-3.43313 161.875 4.72688 161.529 11.5931-0.173247 3.43313ZM157.818-5.80351 184.59 9.31499 156.432 21.6615Z" fill="#156082" transform="matrix(1 0 0 -1 2277.5 1596.81)"/><rect x="2502.5" y="1130.5" width="276" height="182" stroke="#000000" stroke-width="6.875" stroke-miterlimit="8" fill="none"/><text font-family="Aptos,Aptos_MSFontService,sans-serif" font-weight="400" font-size="83" transform="matrix(1 0 0 1 2573.47 1198)">Lab </text><text font-family="Aptos,Aptos_MSFontService,sans-serif" font-weight="400" font-size="83" transform="matrix(1 0 0 1 2540.38 1297)">techs</text><path d="M2396.24 1155.53 2483.78 1206.78 2480.3 1212.72 2392.76 1161.47ZM2485.03 1195.57 2501.82 1221.33 2471.14 1219.3Z" fill="#156082"/><path d="M2.9506-1.76363 200.996 329.571 195.095 333.098-2.9506 1.76363ZM207.496 320.346 209.803 351.005 183.891 334.455Z" fill="#156082" transform="matrix(1 0 0 -1 2277.5 1597.51)"/><path d="M432.182 1886.13 681.054 1936.51 679.69 1943.25 430.818 1892.87ZM678.608 1925.5 702.833 1944.43 673.152 1952.45Z" fill="#156082"/><path d="M2080.55 1843.74 2193.37 1927.51 2189.27 1933.03 2076.45 1849.26ZM2195.84 1916.5 2209.72 1943.93 2179.44 1938.58Z" fill="#156082"/><path d="M2.9991-1.67982 561.42 995.306 555.422 998.665-2.9991 1.67982ZM568.176 986.265 569.618 1016.98 544.183 999.704Z" fill="#156082" transform="matrix(-1 0 0 1 1734.12 927.5)"/><path d="M3.02691-1.62919 563.588 1039.85 557.534 1043.11-3.02691 1.62919ZM570.497 1030.93 571.423 1061.66 546.281 1043.96Z" fill="#156082" transform="matrix(-1 0 0 1 3242.92 882.5)"/><rect x="3243.5" y="832.5" width="724" height="101" stroke="#000000" stroke-width="6.875" stroke-miterlimit="8" fill="none"/><text font-family="Aptos,Aptos_MSFontService,sans-serif" font-weight="400" font-size="83" transform="matrix(1 0 0 1 3314.28 909)">Sequenced data</text><rect x="3274.5" y="1702.5" width="725" height="100" stroke="#000000" stroke-width="6.875" stroke-miterlimit="8" fill="none"/><text font-family="Aptos,Aptos_MSFontService,sans-serif" font-weight="400" font-size="83" transform="matrix(1 0 0 1 3440.86 1779)">Annotation</text><rect x="3265.5" y="1042.5" width="482" height="144" stroke="#000000" stroke-width="6.875" stroke-miterlimit="8" fill="none"/><text font-family="Aptos,Aptos_MSFontService,sans-serif" font-weight="400" font-size="83" transform="matrix(1 0 0 1 3331.66 1141)">Assembly</text><path d="M2.55145-2.30359 86.1798 90.323 81.0769 94.9302-2.55145 2.30359ZM90.7627 80.0103 98.9856 109.636 70.3511 98.439Z" fill="#156082" transform="matrix(-1 0 0 1 3605.49 933.5)"/><rect x="3316.5" y="1490.5" width="519" height="125" stroke="#000000" stroke-width="6.875" stroke-miterlimit="8" fill="none"/><text font-family="Aptos,Aptos_MSFontService,sans-serif" font-weight="400" font-size="83" transform="matrix(1 0 0 1 3382.66 1579)">Annotating</text><rect x="3279.5" y="1253.5" width="626" height="143" stroke="#000000" stroke-width="6.875" stroke-miterlimit="8" fill="none"/><text font-family="Aptos,Aptos_MSFontService,sans-serif" font-weight="400" font-size="83" transform="matrix(1 0 0 1 3438.52 1351)">Genome</text><path d="M3508.61 1183.78 3576.18 1236.19 3571.96 1241.63 3504.39 1189.22ZM3578.88 1225.24 3592.18 1252.96 3562.02 1246.97Z" fill="#156082"/><path d="M3579.31 1613.52 3626.91 1681.22 3621.28 1685.18 3573.69 1617.48ZM3632.71 1671.54 3637.27 1701.95 3610.21 1687.36Z" fill="#156082"/><path d="M3.38011-0.625527 15.2079 63.2875 8.44772 64.5386-3.38011 0.625527ZM24.5142 56.9041 15.998 86.4471-2.52664 61.9083Z" fill="#156082" transform="matrix(-1 0 0 1 3592.5 1396.5)"/><path d="M3638.19 1799.13 3884.19 1849.53 3882.81 1856.27 3636.81 1805.87ZM3881.77 1838.51 3905.95 1857.5 3876.25 1865.45Z" fill="#156082"/><path d="M3595.36 1394.59 3901.04 1850.67 3895.33 1854.5 3589.64 1398.41ZM3907.06 1841.13 3910.95 1871.63 3884.22 1856.44Z" fill="#156082"/><rect x="3932.5" y="1041.5" width="264" height="124" stroke="#000000" stroke-width="6.875" stroke-miterlimit="8" fill="none"/><text font-family="Aptos,Aptos_MSFontService,sans-serif" font-weight="400" font-size="83" transform="matrix(1 0 0 1 4005.65 1130)">WF</text><path d="M0.173247-3.43313 161.875 4.72688 161.529 11.5931-0.173247 3.43313ZM157.818-5.80351 184.59 9.31499 156.432 21.6615Z" fill="#156082" transform="matrix(1 0 0 -1 3747.5 1112.81)"/><rect x="3962.5" y="1465.5" width="264" height="124" stroke="#000000" stroke-width="6.875" stroke-miterlimit="8" fill="none"/><text font-family="Aptos,Aptos_MSFontService,sans-serif" font-weight="400" font-size="83" transform="matrix(1 0 0 1 4035.43 1554)">WF</text><path d="M0.680053-3.36956 104.584 17.6007 103.224 24.3398-0.680053 3.36956ZM102.132 6.58524 126.368 25.5039 96.6912 33.5417Z" fill="#156082" transform="matrix(1 0 0 -1 3835.5 1553)"/><rect x="242.5" y="27.5" width="3815" height="394" stroke="#000000" stroke-width="4.54724" stroke-miterlimit="8" fill="#000000" fill-opacity="0.0509804"/><text font-family="Aptos,Aptos_MSFontService,sans-serif" font-weight="400" font-size="128" transform="matrix(1 0 0 1 1734.78 265)">Core metadata</text><path d="M0.645429-3.37636 1465.65 276.676 1464.36 283.428-0.645429 3.37636ZM1463.08 265.685 1487.51 284.354 1457.92 292.696Z" fill="#156082" transform="matrix(1 0 0 -1 662.5 705.854)"/><path d="M2226.5 570.163 2157.44 443.272 2163.47 439.985 2232.53 566.877ZM2150.57 452.227 2149.5 421.5 2174.72 439.081Z" fill="#156082"/><path d="M3724.84 571.943 2172 427.052 2172.64 420.206 3725.47 565.097ZM2175.6 437.745 2149.5 421.5 2178.16 410.364Z" fill="#156082"/><rect x="343.5" y="85.5001" width="462" height="249" stroke="#000000" stroke-width="6.875" stroke-miterlimit="8" fill="none"/><text font-family="Aptos,Aptos_MSFontService,sans-serif" font-weight="400" font-size="83" transform="matrix(1 0 0 1 432.683 236)">Species</text><rect x="895.5" y="86.5001" width="462" height="249" stroke="#000000" stroke-width="6.875" stroke-miterlimit="8" fill="none"/><text font-family="Aptos,Aptos_MSFontService,sans-serif" font-weight="400" font-size="83" transform="matrix(1 0 0 1 1000.11 237)">Project</text><rect x="2937.5" y="90.4999" width="462" height="250" stroke="#000000" stroke-width="6.875" stroke-miterlimit="8" fill="none"/><text font-family="Aptos,Aptos_MSFontService,sans-serif" font-weight="400" font-size="83" transform="matrix(1 0 0 1 3025.43 242)">Funding</text><rect x="3505.5" y="97.5001" width="462" height="250" stroke="#000000" stroke-width="6.875" stroke-miterlimit="8" fill="none"/><text font-family="Aptos,Aptos_MSFontService,sans-serif" font-weight="400" font-size="83" transform="matrix(1 0 0 1 3702.15 249)">…</text></g></svg>