<svg width="3865" height="2037" xmlns="http://www.w3.org/2000/svg" xmlns:xlink="http://www.w3.org/1999/xlink" xml:space="preserve" overflow="hidden"><g transform="translate(-354 -58)"><rect x="3219.5" y="706.5" width="957" height="1386" stroke="#000000" stroke-width="4.54724" stroke-miterlimit="8" fill="#000000" fill-opacity="0.0509804"/><text font-family="Aptos,Aptos_MSFontService,sans-serif" font-weight="400" font-size="128" transform="matrix(1 0 0 1 3279.86 1132)">Computational </text><text font-family="Aptos,Aptos_MSFontService,sans-serif" font-weight="400" font-size="128" transform="matrix(1 0 0 1 3279.86 1286)">analysis </text><text font-family="Aptos,Aptos_MSFontService,sans-serif" font-weight="400" font-size="128" transform="matrix(1 0 0 1 3279.86 1440)">(genome </text><text font-family="Aptos,Aptos_MSFontService,sans-serif" font-weight="400" font-size="128" transform="matrix(1 0 0 1 3279.86 1594)">assembly, </text><text font-family="Aptos,Aptos_MSFontService,sans-serif" font-weight="400" font-size="128" transform="matrix(1 0 0 1 3279.86 1748)">barcoding, </text><text font-family="Aptos,Aptos_MSFontService,sans-serif" font-weight="400" font-size="128" transform="matrix(1 0 0 1 3898.56 1748)">etc</text><text font-family="Aptos,Aptos_MSFontService,sans-serif" font-weight="400" font-size="128" transform="matrix(1 0 0 1 4074.4 1748)">)</text><rect x="1760.5" y="706.5" width="957" height="1386" stroke="#000000" stroke-width="4.54724" stroke-miterlimit="8" fill="#000000" fill-opacity="0.0509804"/><text font-family="Aptos,Aptos_MSFontService,sans-serif" font-weight="400" font-size="128" transform="matrix(1 0 0 1 1897.08 1286)">Wet lab </text><text font-family="Aptos,Aptos_MSFontService,sans-serif" font-weight="400" font-size="128" transform="matrix(1 0 0 1 1897.08 1440)">processes &amp; </text><text font-family="Aptos,Aptos_MSFontService,sans-serif" font-weight="400" font-size="128" transform="matrix(1 0 0 1 1897.08 1594)">sequencing</text><rect x="356.5" y="706.5" width="957" height="1386" stroke="#000000" stroke-width="4.54724" stroke-miterlimit="8" fill="#000000" fill-opacity="0.0509804"/><text font-family="Aptos,Aptos_MSFontService,sans-serif" font-weight="400" font-size="128" transform="matrix(1 0 0 1 488.087 1209)">Specimen / </text><text font-family="Aptos,Aptos_MSFontService,sans-serif" font-weight="400" font-size="128" transform="matrix(1 0 0 1 488.087 1363)">sample </text><text font-family="Aptos,Aptos_MSFontService,sans-serif" font-weight="400" font-size="128" transform="matrix(1 0 0 1 488.087 1517)">collection &amp; </text><text font-family="Aptos,Aptos_MSFontService,sans-serif" font-weight="400" font-size="128" transform="matrix(1 0 0 1 488.087 1671)">preservation</text><path d="M1356.5 1357.04 1645.38 1357.04 1645.38 1379.96 1356.5 1379.96ZM1633.93 1334.13 1702.68 1368.5 1633.93 1402.88Z"/><path d="M2792.5 1357.04 3081.38 1357.04 3081.38 1379.96 2792.5 1379.96ZM3069.93 1334.13 3138.68 1368.5 3069.93 1402.88Z"/><rect x="361.5" y="60.5" width="3815" height="395" stroke="#000000" stroke-width="4.54724" stroke-miterlimit="8" fill="#000000" fill-opacity="0.0509804"/><text font-family="Aptos,Aptos_MSFontService,sans-serif" font-weight="400" font-size="128" transform="matrix(1 0 0 1 1854.03 298)">Core metadata</text><path d="M0.592784-3.386 1411.74 243.662 1410.55 250.434-0.592784 3.386ZM1409 232.714 1433.72 251 1404.26 259.802Z" fill="#156082" transform="matrix(1 0 0 -1 835.5 706.5)"/><path d="M3.41354-0.405169 30.5048 227.838 23.6777 228.649-3.41354 0.405169ZM40.2052 222.071 29.7924 251 12.8969 225.313Z" fill="#156082" transform="matrix(1 0 0 -1 2239.5 706.5)"/><path d="M3697.87 709.886 2291.48 462.851 2292.67 456.079 3699.06 703.115ZM2294.21 473.8 2269.5 455.5 2298.96 446.715Z" fill="#156082"/></g></svg>