<svg width="4068" height="2149" xmlns="http://www.w3.org/2000/svg" xmlns:xlink="http://www.w3.org/1999/xlink" xml:space="preserve" overflow="hidden"><g transform="translate(-354 -58)"><rect x="2962.5" y="566.5" width="587" height="1433" stroke="#000000" stroke-width="4.54724" stroke-miterlimit="8" fill="#000000" fill-opacity="0.0509804"/><text font-family="Aptos,Aptos_MSFontService,sans-serif" font-weight="400" font-size="128" transform="matrix(1 0 0 1 3029.58 1246)">Primary </text><text font-family="Aptos,Aptos_MSFontService,sans-serif" font-weight="400" font-size="128" transform="matrix(1 0 0 1 3029.58 1400)">analysis</text><rect x="1584.5" y="541.5" width="957" height="532" stroke="#000000" stroke-width="4.54724" stroke-miterlimit="8" fill="#000000" fill-opacity="0.0509804"/><text font-family="Aptos,Aptos_MSFontService,sans-serif" font-weight="400" font-size="128" transform="matrix(1 0 0 1 1721.08 694)">Wet lab </text><text font-family="Aptos,Aptos_MSFontService,sans-serif" font-weight="400" font-size="128" transform="matrix(1 0 0 1 1721.08 848)">processes &amp; </text><text font-family="Aptos,Aptos_MSFontService,sans-serif" font-weight="400" font-size="128" transform="matrix(1 0 0 1 1721.08 1002)">sequencing</text><rect x="356.5" y="541.5" width="957" height="368" stroke="#000000" stroke-width="4.54724" stroke-miterlimit="8" fill="#000000" fill-opacity="0.0509804"/><text font-family="Aptos,Aptos_MSFontService,sans-serif" font-weight="400" font-size="128" transform="matrix(1 0 0 1 623.181 766)">Sample</text><rect x="361.5" y="60.5" width="3815" height="395" stroke="#000000" stroke-width="4.54724" stroke-miterlimit="8" fill="#000000" fill-opacity="0.0509804"/><text font-family="Aptos,Aptos_MSFontService,sans-serif" font-weight="400" font-size="128" transform="matrix(1 0 0 1 1854.03 298)">Core metadata</text><rect x="356.5" y="1049.5" width="957" height="369" stroke="#000000" stroke-width="4.54724" stroke-miterlimit="8" fill="#000000" fill-opacity="0.0509804"/><text font-family="Aptos,Aptos_MSFontService,sans-serif" font-weight="400" font-size="128" transform="matrix(1 0 0 1 623.181 1275)">Sample</text><rect x="361.5" y="1604.5" width="957" height="369" stroke="#000000" stroke-width="4.54724" stroke-miterlimit="8" fill="#000000" fill-opacity="0.0509804"/><text font-family="Aptos,Aptos_MSFontService,sans-serif" font-weight="400" font-size="128" transform="matrix(1 0 0 1 787.21 1830)">…</text><rect x="1599.5" y="1203.5" width="957" height="532" stroke="#000000" stroke-width="4.54724" stroke-miterlimit="8" fill="#000000" fill-opacity="0.0509804"/><text font-family="Aptos,Aptos_MSFontService,sans-serif" font-weight="400" font-size="128" transform="matrix(1 0 0 1 1735.98 1356)">Wet lab </text><text font-family="Aptos,Aptos_MSFontService,sans-serif" font-weight="400" font-size="128" transform="matrix(1 0 0 1 1735.98 1510)">processes &amp; </text><text font-family="Aptos,Aptos_MSFontService,sans-serif" font-weight="400" font-size="128" transform="matrix(1 0 0 1 1735.98 1664)">sequencing</text><rect x="1596.5" y="1927.5" width="957" height="251" stroke="#000000" stroke-width="4.54724" stroke-miterlimit="8" fill="#000000" fill-opacity="0.0509804"/><text font-family="Aptos,Aptos_MSFontService,sans-serif" font-weight="400" font-size="128" transform="matrix(1 0 0 1 2022.37 2093)">…</text><rect x="3684.5" y="566.5" width="676" height="1433" stroke="#000000" stroke-width="4.54724" stroke-miterlimit="8" fill="#000000" fill-opacity="0.0509804"/><text font-family="Aptos,Aptos_MSFontService,sans-serif" font-weight="400" font-size="128" transform="matrix(1 0 0 1 3725.43 1246)">Secondary </text><text font-family="Aptos,Aptos_MSFontService,sans-serif" font-weight="400" font-size="128" transform="matrix(1 0 0 1 3725.43 1400)">analysis</text><path d="M1314.49 722.209 1563.48 797.184 1561.49 803.767 1312.51 728.792ZM1562.06 785.988 1584.43 807.083 1554.13 812.32Z" fill="#156082"/><path d="M1315.69 1231.85 1583.83 1452.98 1579.46 1458.28 1311.31 1237.15ZM1586.86 1442.11 1599.33 1470.21 1569.36 1463.32Z" fill="#156082"/><path d="M1320.86 1787 1582.39 2034.75 1577.66 2039.74 1316.14 1792ZM1586.15 2024.11 1596.66 2053 1567.24 2044.07Z" fill="#156082"/><path d="M2544.07 805.222 2949.84 1263.97 2944.7 1268.53 2538.93 809.777ZM2954.53 1253.71 2962.45 1283.42 2933.93 1271.93Z" fill="#156082"/><path d="M1.43714-3.12267 386.676 174.175 383.801 180.42-1.43714 3.12267ZM386.823 162.89 406.056 186.878 375.326 187.872Z" fill="#156082" transform="matrix(1 0 0 -1 2556.5 1469.38)"/><path d="M3.03559-1.61295 401.242 747.816 395.171 751.042-3.03559 1.61295ZM408.199 738.932 408.96 769.668 383.914 751.835Z" fill="#156082" transform="matrix(1 0 0 -1 2553.5 2052.17)"/><path d="M9.22512e-06-3.4375 111.561-3.4372 111.56 3.4378-9.22512e-06 3.4375ZM106.977-13.7497 134.477 0.000360892 106.977 13.7503Z" fill="#156082" transform="matrix(1 0 0 -1 3549.5 1282.5)"/></g></svg>